<svg class="icon icon-cart-empty" aria-hidden="true" focusable="false" xmlns="http://www.w3.org/2000/svg" viewBox="0 0 24 25" fill="none">
  <path d="M6 2.88281L3 6.88281V20.8828C3 21.4132 3.21071 21.922 3.58579 22.297C3.96086 22.6721 4.46957 22.8828 5 22.8828H19C19.5304 22.8828 20.0391 22.6721 20.4142 22.297C20.7893 21.922 21 21.4132 21 20.8828V6.88281L18 2.88281H6Z" stroke="currentColor" stroke-width="1.5" stroke-linecap="round" stroke-linejoin="round"></path>
  <path d="M3 6.88281H21" stroke="currentColor" stroke-width="1.5" stroke-linecap="round" stroke-linejoin="round"></path>
  <path d="M16 10.8828C16 11.9437 15.5786 12.9611 14.8284 13.7112C14.0783 14.4614 13.0609 14.8828 12 14.8828C10.9391 14.8828 9.92172 14.4614 9.17157 13.7112C8.42143 12.9611 8 11.9437 8 10.8828" stroke="currentColor" stroke-width="1.5" stroke-linecap="round" stroke-linejoin="round"></path>
</svg>