<svg class="icon icon-notification" viewBox="0 0 24 25" fill="none" xmlns="http://www.w3.org/2000/svg" focusable="false" aria-hidden="true">
    <path d="M18 8.88281C18 7.29151 17.3679 5.76539 16.2426 4.64017C15.1174 3.51495 13.5913 2.88281 12 2.88281C10.4087 2.88281 8.88258 3.51495 7.75736 4.64017C6.63214 5.76539 6 7.29151 6 8.88281C6 15.8828 3 17.8828 3 17.8828H21C21 17.8828 18 15.8828 18 8.88281Z" stroke="currentColor" stroke-width="1.5" stroke-linecap="round" stroke-linejoin="round"></path>
    <path d="M13.73 21.8828C13.5542 22.1859 13.3019 22.4375 12.9982 22.6123C12.6946 22.7872 12.3504 22.8793 12 22.8793C11.6496 22.8793 11.3054 22.7872 11.0018 22.6123C10.6982 22.4375 10.4458 22.1859 10.27 21.8828" stroke="currentColor" stroke-width="1.5" stroke-linecap="round" stroke-linejoin="round"></path>
</svg>
