<svg class="lg:tw-block sm:tw-h-[350px] md:tw-h-[400px] tw-w-full lg:tw-h-full" width="432" height="329" viewBox="0 0 432 329" fill="none" xmlns="http://www.w3.org/2000/svg">
                        <path id="letter-1" class="letter" d="M57.9935 108.539H61.4616V52.4708H57.9935C57.2239 66.5363 55.4875 77.7117 38.1471 77.7117V17.5969H42.772C68.2045 17.5969 76.4899 31.2784 78.0291 53.6268H82.076L80.9207 10.0049H0V17.5969H9.24818V146.302H0V149.769H49.5157V146.302H38.1471V81.1797C55.4867 81.1797 57.8011 93.702 57.9935 108.539Z" fill="#E10080"></path>
                        <path id="letter-2" class="letter" d="M147.761 257.387L115.456 136.932H107.027L75.7716 250.011C74.3659 255.278 71.3813 257.387 65.4111 257.387V260.546H88.7637V257.387C86.3054 257.387 79.4583 257.213 79.4583 253.346C79.4583 251.767 80.8616 246.324 82.7936 239.473L87.009 223.322H112.293L121.248 257.387H112.82V260.546H155.489V257.387H147.761H147.761ZM87.7103 220.162L99.1234 176.791H99.4764L111.416 220.162H87.7103Z" fill="#E10080"></path>
                        <path id="letter-3" class="letter" d="M184.539 80.4915V31.01C184.539 28.2042 185.891 27.4767 189.736 27.4767V21.5996H176.43V27.4767C180.588 27.4767 182.043 28.2042 182.043 32.1541V81.1157C182.043 90.1595 178.405 97.1243 169.881 97.1243C162.292 97.1243 159.485 92.0303 159.485 83.9222V27.4767H164.892V21.5996H138.695V27.4767H143.893V80.4915C143.893 92.2378 150.234 100.243 164.059 100.243C179.445 100.243 184.538 92.9653 184.538 80.4915" fill="#E10080"></path>
                        <path id="letter-4" class="letter" d="M189.423 249.793C181.36 249.793 180.016 240.384 180.016 233.106V192.234C180.016 179.692 181.808 171.852 189.983 171.852C199.948 171.852 204.875 184.955 205.995 194.25H212.142V171.405H205.995C205.772 173.979 205.211 176.108 203.531 176.108C200.956 176.108 197.82 169.837 189.422 169.837C172.289 169.837 161.201 189.097 161.201 210.822C161.201 232.548 172.289 251.809 189.422 251.809C197.261 251.809 201.74 246.208 204.203 246.208C206.108 246.208 206.778 248.449 206.778 250.24H212.925V227.396H206.778C205.882 238.705 199.836 249.792 189.422 249.792" fill="#E10080"></path>
                        <path id="letter-5" class="letter" d="M265.307 51.5209H271.901V91.0841H252.245V51.5209H258.84V49.2383H227.14V51.5209H233.225V136.225H227.14V142.359H258.84V136.225H252.245V93.3667H271.901V136.225H265.307V142.359H297.007V136.225H290.92V51.5209H297.007V49.2383H265.307V51.5209Z" fill="#E10080"></path>
                        <path id="letter-6" class="letter" d="M348.827 0.620117C329.449 0.620117 316.912 22.4025 316.912 46.9715C316.912 71.5406 329.449 93.3221 348.827 93.3221C368.204 93.3221 380.738 71.5406 380.738 46.9715C380.738 22.4025 368.202 0.620117 348.827 0.620117ZM359.466 76.6051C359.466 86.2286 356.045 91.0435 348.827 91.0435C341.608 91.0435 338.188 86.2286 338.188 76.6051V17.3363C338.188 7.71288 341.608 2.89956 348.827 2.89956C356.045 2.89956 359.466 7.71288 359.466 17.3363V76.6059V76.6051Z" fill="#E10080"></path>
                        <path id="letter-7" class="letter" d="M405.49 212.923V215.829C412.593 215.829 415.175 217.928 415.175 222.127V281.866H414.851L379.171 212.923H348.335V215.829C353.823 215.829 356.891 216.799 356.891 221.48V317.061C356.891 322.55 353.178 323.684 348.335 323.684V326.588H369.967V323.684C364.801 323.684 360.763 322.55 360.763 317.061V229.391H361.089L412.269 328.849H423.443V222.126C423.443 217.606 425.381 215.828 431.999 215.828V212.922H405.49V212.923Z" fill="#E10080"></path>
                      </svg>