<svg xmlns="http://www.w3.org/2000/svg" width="25" height="25" viewBox="0 0 25 25" fill="none">
                                    <path d="M3.09679 8.85173H6.90122V21.0851H3.09679V8.85173ZM4.99229 2.77539C6.21562 2.77539 7.19698 3.75675 7.19698 4.98008C7.19698 6.18997 6.21562 7.18477 4.99229 7.18477C3.76895 7.18477 2.7876 6.18997 2.7876 4.98008C2.7876 3.75675 3.76895 2.77539 4.99229 2.77539Z" fill="#E10080"></path>
                                    <path d="M9.28076 8.85167H12.9239V10.5186H12.9776C13.4885 9.55072 14.7253 8.54248 16.5804 8.54248C20.4252 8.54248 21.1377 11.0698 21.1377 14.3634V21.0716H17.3333V15.1297C17.3333 13.7047 17.3064 11.8898 15.3571 11.8898C13.3809 11.8898 13.0718 13.4358 13.0718 15.0356V21.085H9.28076V8.85167Z" fill="#E10080"></path>
                                  </svg>