<svg xmlns="http://www.w3.org/2000/svg" width="25" height="25" viewBox="0 0 25 25" fill="none">
                                    <path fill-rule="evenodd" clip-rule="evenodd" d="M15.472 12.1201C15.472 11.2001 15.1448 10.4144 14.4948 9.76298C13.8777 9.12583 13.0248 8.77155 12.1377 8.78583C11.2177 8.78583 10.432 9.11298 9.78055 9.76298C9.14341 10.3801 8.78912 11.233 8.80341 12.1201C8.80341 13.0401 9.13055 13.8258 9.78055 14.4773C10.3977 15.1144 11.252 15.4673 12.1377 15.453C13.0577 15.453 13.8434 15.1273 14.4948 14.4773C15.132 13.8601 15.4863 13.0073 15.472 12.1201ZM17.2677 12.1201C17.2677 13.543 16.7677 14.7544 15.7706 15.753C14.772 16.7515 13.5606 17.2501 12.1377 17.2501C10.7148 17.2501 9.50341 16.7501 8.50484 15.753C7.50627 14.7544 7.0077 13.543 7.0077 12.1201C7.0077 10.6958 7.5077 9.4844 8.50484 8.48726C9.50341 7.48726 10.7148 6.99012 12.1377 6.99012C13.5606 6.99012 14.772 7.48869 15.7706 8.48726C16.7691 9.4844 17.2677 10.6958 17.2677 12.1201ZM18.6748 6.78155C18.6748 7.11012 18.5563 7.39297 18.322 7.62726C18.1006 7.85583 17.7948 7.98297 17.4763 7.97869C17.1577 7.98297 16.852 7.85583 16.6306 7.62726C16.402 7.40583 16.2748 7.10012 16.2791 6.78155C16.2791 6.45155 16.3948 6.16869 16.6306 5.93583C16.852 5.70583 17.1577 5.57869 17.4763 5.58297C17.8063 5.58297 18.0891 5.70012 18.322 5.93583C18.5506 6.15726 18.6791 6.46297 18.6748 6.78155ZM12.1377 3.91726L11.142 3.91012C10.6834 3.90583 10.2263 3.90583 9.76769 3.91012C9.45484 3.9144 9.03627 3.92726 8.51055 3.95012C7.98627 3.97155 7.53912 4.0144 7.17055 4.07869C6.85341 4.13155 6.54198 4.21155 6.23912 4.32155C5.80912 4.49155 5.41912 4.74869 5.09341 5.07583C4.76484 5.4044 4.51198 5.78726 4.3377 6.22155C4.22912 6.5244 4.1477 6.83583 4.09627 7.15297C4.02484 7.59583 3.98198 8.0444 3.9677 8.49298C3.94484 9.01869 3.93198 9.43726 3.9277 9.75012C3.92341 10.063 3.92341 10.5215 3.9277 11.1244L3.93484 12.1201L3.9277 13.1158C3.92341 13.7187 3.92341 14.1773 3.9277 14.4901C3.93198 14.8015 3.94484 15.2215 3.9677 15.7473C3.98198 16.1958 4.02484 16.6444 4.09627 17.0873C4.16198 17.4558 4.24198 17.7673 4.33912 18.0187C4.68341 18.8873 5.37055 19.5758 6.23912 19.9201C6.49055 20.0144 6.80198 20.0958 7.17055 20.1601C7.53912 20.2258 7.98484 20.2687 8.51198 20.2901C9.03627 20.313 9.45484 20.3244 9.76912 20.3301C10.0806 20.3344 10.5391 20.3344 11.1406 20.3301L12.1377 20.323L13.1334 20.3301C13.7363 20.3344 14.1948 20.3344 14.5077 20.3301C14.8206 20.3244 15.2391 20.313 15.7648 20.2901C16.2891 20.2687 16.7363 20.2258 17.1048 20.1601C17.4734 20.0958 17.7848 20.0144 18.0363 19.9201C18.9048 19.5758 19.592 18.8873 19.9363 18.0187C20.0463 17.7158 20.1277 17.4044 20.1791 17.0873C20.2506 16.643 20.2934 16.1958 20.3077 15.7458C20.3306 15.2215 20.3434 14.803 20.3477 14.4887C20.352 14.1773 20.352 13.7187 20.3477 13.1158L20.3406 12.1201L20.3477 11.1244C20.352 10.5201 20.352 10.063 20.3477 9.75012C20.3406 9.33155 20.3263 8.91155 20.3077 8.49298C20.2934 8.0444 20.2506 7.59583 20.1791 7.15297C20.1263 6.83583 20.0463 6.5244 19.9363 6.22155C19.7663 5.79155 19.5091 5.40155 19.182 5.07583C18.8563 4.74869 18.4663 4.49155 18.0363 4.32012C17.7334 4.21155 17.422 4.13012 17.1048 4.07869C16.6606 4.00726 16.2134 3.96297 15.7634 3.95012C15.2391 3.92726 14.8206 3.9144 14.5063 3.91012C14.0491 3.90583 13.592 3.90583 13.1348 3.91012L12.1377 3.91726ZM22.1377 12.1201C22.1377 14.1087 22.1163 15.483 22.072 16.2487C21.9863 18.053 21.4477 19.4501 20.4577 20.4401C19.4677 21.4301 18.072 21.9687 16.2648 22.0544C15.502 22.0973 14.1263 22.1201 12.1377 22.1201C10.1491 22.1201 8.77341 22.0987 8.00912 22.0544C6.20484 21.9687 4.8077 21.4301 3.81627 20.4401C2.8277 19.4501 2.28912 18.0544 2.20198 16.2473C2.16055 15.483 2.1377 14.1087 2.1377 12.1201C2.1377 10.1315 2.15912 8.75583 2.20341 7.99155C2.28912 6.18583 2.8277 4.78869 3.8177 3.79869C4.8077 2.81012 6.20341 2.27155 8.01055 2.1844C8.77341 2.14155 10.1491 2.12012 12.1377 2.12012C14.1263 2.12012 15.502 2.14155 16.2663 2.1844C18.0706 2.27155 19.4677 2.81012 20.4591 3.79869C21.4477 4.78869 21.9863 6.18583 22.0734 7.99297C22.1163 8.75583 22.1377 10.1315 22.1377 12.1201Z" fill="#E10080"></path>
                                  </svg>